<?xml version="1.0" encoding="UTF-8"?>
<svg width="720px" height="900px" viewBox="0 0 720 900" version="1.1" xmlns="http://www.w3.org/2000/svg" xmlns:xlink="http://www.w3.org/1999/xlink">
    <title>stacked-waves-haikei</title>
    <g id="Mockups---Desktop" stroke="none" stroke-width="1" fill="none" fill-rule="evenodd">
        <g id="Artboard" transform="translate(-698.000000, -699.000000)" fill-rule="nonzero">
            <g id="stacked-waves-haikei" transform="translate(698.000000, 699.000000)">
                <path d="M647,900 L641,870 C635,840 623,780 618.2,720 C613.3,660 615.7,600 626.5,540 C637.3,480 656.7,420 663.8,360 C671,300 666,240 657.5,180 C649,120 637,60 631,30 L625,0 L720,0 L720,30 C720,60 720,120 720,180 C720,240 720,300 720,360 C720,420 720,480 720,540 C720,600 720,660 720,720 C720,780 720,840 720,870 L720,900 L647,900 Z" id="Path" fill="#6198FF"></path>
                <path d="M625,900 L614.3,870 C603.7,840 582.3,780 570.3,720 C558.3,660 555.7,600 566.3,540 C577,480 601,420 615.5,360 C630,300 635,240 629,180 C623,120 606,60 597.5,30 L589,0 L626,0 L632,30 C638,60 650,120 658.5,180 C667,240 672,300 664.8,360 C657.7,420 638.3,480 627.5,540 C616.7,600 614.3,660 619.2,720 C624,780 636,840 642,870 L648,900 L625,900 Z" id="Path" fill="#4F8CFF"></path>
                <path d="M438,900 L446.5,870 C455,840 472,780 478,720 C484,660 479,600 462.2,540 C445.3,480 416.7,420 416.7,360 C416.7,300 445.3,240 452.5,180 C459.7,120 445.3,60 438.2,30 L431,0 L590,0 L598.5,30 C607,60 624,120 630,180 C636,240 631,300 616.5,360 C602,420 578,480 567.3,540 C556.7,600 559.3,660 571.3,720 C583.3,780 604.7,840 615.3,870 L626,900 L438,900 Z" id="Path" fill="#3C80FF"></path>
                <path d="M381,900 L388.2,870 C395.3,840 409.7,780 421.7,720 C433.7,660 443.3,600 428.8,540 C414.3,480 375.7,420 372,360 C368.3,300 399.7,240 405.7,180 C411.7,120 392.3,60 382.7,30 L373,0 L432,0 L439.2,30 C446.3,60 460.7,120 453.5,180 C446.3,240 417.7,300 417.7,360 C417.7,420 446.3,480 463.2,540 C480,600 485,660 479,720 C473,780 456,840 447.5,870 L439,900 L381,900 Z" id="Path" fill="#2573FF"></path>
                <path d="M337,900 L338.3,870 C339.7,840 342.3,780 347.2,720 C352,660 359,600 343.3,540 C327.7,480 289.3,420 287,360 C284.7,300 318.3,240 325.5,180 C332.7,120 313.3,60 303.7,30 L294,0 L374,0 L383.7,30 C393.3,60 412.7,120 406.7,180 C400.7,240 369.3,300 373,360 C376.7,420 415.3,480 429.8,540 C444.3,600 434.7,660 422.7,720 C410.7,780 396.3,840 389.2,870 L382,900 L337,900 Z" id="Path" fill="#0066FF"></path>
                <path d="M222,900 L210,870 C198,840 174,780 164.5,720 C155,660 160,600 157.7,540 C155.3,480 145.7,420 146.8,360 C148,300 160,240 155.2,180 C150.3,120 128.7,60 117.8,30 L107,0 L295,0 L304.7,30 C314.3,60 333.7,120 326.5,180 C319.3,240 285.7,300 288,360 C290.3,420 328.7,480 344.3,540 C360,600 353,660 348.2,720 C343.3,780 340.7,840 339.3,870 L338,900 L222,900 Z" id="Path" fill="#005FEE"></path>
                <path d="M121,900 L116.3,870 C111.7,840 102.3,780 101.2,720 C100,660 107,600 105.7,540 C104.3,480 94.7,420 88.7,360 C82.7,300 80.3,240 76.8,180 C73.3,120 68.7,60 66.3,30 L64,0 L108,0 L118.8,30 C129.7,60 151.3,120 156.2,180 C161,240 149,300 147.8,360 C146.7,420 156.3,480 158.7,540 C161,600 156,660 165.5,720 C175,780 199,840 211,870 L223,900 L121,900 Z" id="Path" fill="#0059DD"></path>
                <path d="M64,900 L62.8,870 C61.7,840 59.3,780 59.3,720 C59.3,660 61.7,600 62.8,540 C64,480 64,420 60.3,360 C56.7,300 49.3,240 45.7,180 C42,120 42,60 42,30 L42,0 L65,0 L67.3,30 C69.7,60 74.3,120 77.8,180 C81.3,240 83.7,300 89.7,360 C95.7,420 105.3,480 106.7,540 C108,600 101,660 102.2,720 C103.3,780 112.7,840 117.3,870 L122,900 L64,900 Z" id="Path" fill="#0052CC"></path>
                <path d="M0,900 L0,870 C0,840 0,780 0,720 C0,660 0,600 0,540 C0,480 0,420 0,360 C0,300 0,240 0,180 C0,120 0,60 0,30 L0,0 L43,0 L43,30 C43,60 43,120 46.7,180 C50.3,240 57.7,300 61.3,360 C65,420 65,480 63.8,540 C62.7,600 60.3,660 60.3,720 C60.3,780 62.7,840 63.8,870 L65,900 L0,900 Z" id="Path" fill="#004CBB"></path>
            </g>
        </g>
    </g>
</svg>