<?xml version="1.0" encoding="UTF-8"?>
<svg width="76px" height="64px" viewBox="0 0 76 64" version="1.1" xmlns="http://www.w3.org/2000/svg" xmlns:xlink="http://www.w3.org/1999/xlink">
    <title>Wave Mask</title>
    <defs>
        <path d="M37.9996947,0 L76,23.8821913 L63.8878136,31.487131 L38.0003053,47.7647492 L12.1840452,31.4863162 L7.43443964,28.539952 L7.43443964,55.1315762 C8.65017745,55.8341002 9.49306348,57.0387181 9.73718002,58.4223788 C9.98050265,59.8060395 9.60040392,61.2263235 8.697873,62.3028616 C7.79526066,63.378585 6.46340872,64 5.05912793,64 C3.65492858,64 2.32291378,63.378585 1.42038287,62.3028616 C0.517847877,61.2263643 0.137753219,59.8060395 0.381075847,58.4223788 C0.62515167,57.0387792 1.46797663,55.834141 2.68381622,55.1315762 L2.68381622,55.1315762 L2.68381622,25.5701636 L0,23.8825579 L37.9996947,0 Z M63.9365079,37.4339623 L63.9365079,38.3289723 C63.9365079,47.5009275 58.9929768,55.9754224 50.9676421,60.5608953 C42.943939,65.1463682 33.0568768,65.1463682 25.0323579,60.5608953 C17.0070232,55.9752205 12.0634921,47.5007256 12.0634921,38.3289723 L12.0634921,38.3289723 L12.0634921,37.4339623 L37.9991842,53.5197568 L63.9365079,37.4339623 Z" id="path-1"></path>
    </defs>
    <g id="Design-System" stroke="none" stroke-width="1" fill="none" fill-rule="evenodd">
        <g id="Logo" transform="translate(-26.000000, -32.000000)">
            <g id="Wave-Mask" transform="translate(26.000000, 32.000000)">
                <mask id="mask-2" fill="white">
                    <use xlink:href="#path-1"></use>
                </mask>
                <use id="Mask" fill="#CA7878" fill-rule="nonzero" xlink:href="#path-1"></use>
                <g mask="url(#mask-2)" fill-rule="nonzero" id="Path">
                    <g transform="translate(-5.000000, -12.000000)">
                        <path d="M0,15.4931507 L7.25,19.4260274 C14.5,23.4780822 29,31.3438356 43.5,30.6287671 C58,29.7945205 72.5,20.260274 79.75,15.4931507 L87,10.7260274 L87,3.57534247 L79.75,3.57534247 C72.5,3.57534247 58,3.57534247 43.5,3.57534247 C29,3.57534247 14.5,3.57534247 7.25,3.57534247 L0,3.57534247 L0,15.4931507 Z" fill="#718BDF"></path>
                        <path d="M0,20.260274 L7.25,24.7890411 C14.5,29.4369863 29,38.4945205 43.5,37.1835616 C58,35.7534247 72.5,23.8356164 79.75,17.8767123 L87,11.9178082 L87,8.34246575 L79.75,13.109589 C72.5,17.8767123 58,27.4109589 43.5,28.2452055 C29,28.960274 14.5,21.0945205 7.25,17.0424658 L0,13.109589 L0,20.260274 Z" fill="#6297E6"></path>
                        <path d="M0,23.8356164 L7.25,29.1986301 C14.5,34.5616438 29,45.2876712 43.5,43.2616438 C58,41.3547945 72.5,26.5767123 79.75,19.3068493 L87,11.9178082 L87,9.53424658 L79.75,15.4931507 C72.5,21.4520548 58,33.369863 43.5,34.8 C29,36.1109589 14.5,27.0534247 7.25,22.4054795 L0,17.8767123 L0,23.8356164 Z" fill="#54A2EB"></path>
                        <path d="M0,27.4109589 L7.25,32.4164384 C14.5,37.3027397 29,47.3136986 43.5,45.2876712 C58,43.2616438 72.5,29.4369863 79.75,22.4054795 L87,15.4931507 L87,9.53424658 L79.75,16.9232877 C72.5,24.1931507 58,38.9712329 43.5,40.8780822 C29,42.9041096 14.5,32.1780822 7.25,26.8150685 L0,21.4520548 L0,27.4109589 Z" fill="#49ADEE"></path>
                        <path d="M0,34.5616438 L7.25,38.9712329 C14.5,43.2616438 29,52.0808219 43.5,49.2205479 C58,46.4794521 72.5,32.1780822 79.75,25.0273973 L87,17.8767123 L87,13.109589 L79.75,20.0219178 C72.5,27.0534247 58,40.8780822 43.5,42.9041096 C29,44.930137 14.5,34.9191781 7.25,30.0328767 L0,25.0273973 L0,34.5616438 Z" fill="#43B7EF"></path>
                        <path d="M0,40.5205479 L7.25,44.3342466 C14.5,48.0287671 29,55.6561644 43.5,52.0808219 C58,48.5054795 72.5,33.7273973 79.75,26.4575342 L87,19.0684932 L87,15.4931507 L79.75,22.6438356 C72.5,29.7945205 58,44.0958904 43.5,46.8369863 C29,49.6972603 14.5,40.8780822 7.25,36.5876712 L0,32.1780822 L0,40.5205479 Z" fill="#45C1EF"></path>
                        <path d="M0,46.4794521 L7.25,49.4589041 C14.5,52.4383562 29,58.3972603 43.5,54.4643836 C58,50.4123288 72.5,36.5876712 79.75,29.5561644 L87,22.6438356 L87,16.6849315 L79.75,24.0739726 C72.5,31.3438356 58,46.1219178 43.5,49.6972603 C29,53.2726027 14.5,45.6452055 7.25,41.9506849 L0,38.1369863 L0,46.4794521 Z" fill="#4ECAED"></path>
                        <path d="M0,73.890411 L7.25,72.6986301 C14.5,71.5068493 29,69.1232877 43.5,65.190411 C58,61.1383562 72.5,55.6561644 79.75,52.7958904 L87,50.0547945 L87,20.260274 L79.75,27.1726027 C72.5,34.2041096 58,48.0287671 43.5,52.0808219 C29,56.0136986 14.5,50.0547945 7.25,47.0753425 L0,44.0958904 L0,73.890411 Z" fill="#5CD3EB"></path>
                        <path d="M0,79.8493151 L7.25,78.3 C14.5,76.6315068 29,73.5328767 43.5,71.8643836 C58,70.3150685 72.5,70.3150685 79.75,70.3150685 L87,70.3150685 L87,47.6712329 L79.75,50.4123288 C72.5,53.2726027 58,58.7547945 43.5,62.8068493 C29,66.739726 14.5,69.1232877 7.25,70.3150685 L0,71.5068493 L0,79.8493151 Z" fill="#6CDBE8"></path>
                        <path d="M0,85.8082192 L7.25,84.8547945 C14.5,83.7821918 29,81.8753425 43.5,81.2794521 C58,80.6835616 72.5,81.3986301 79.75,81.8753425 L87,82.2328767 L87,67.9315068 L79.75,67.9315068 C72.5,67.9315068 58,67.9315068 43.5,69.4808219 C29,71.1493151 14.5,74.2479452 7.25,75.9164384 L0,77.4657534 L0,85.8082192 Z" fill="#7EE3E6"></path>
                    </g>
                </g>
            </g>
        </g>
    </g>
</svg>