<svg id="visual" viewBox="0 0 900 2700" width="900" height="2700" xmlns="http://www.w3.org/2000/svg" xmlns:xlink="http://www.w3.org/1999/xlink" version="1.1"><path d="M863 2700L863 2610C863 2520 863 2340 861.5 2160C860 1980 857 1800 860 1620C863 1440 872 1260 869 1080C866 900 851 720 849.5 540C848 360 860 180 866 90L872 0L900 0L900 90C900 180 900 360 900 540C900 720 900 900 900 1080C900 1260 900 1440 900 1620C900 1800 900 1980 900 2160C900 2340 900 2520 900 2610L900 2700Z" fill="#a6a6e3"></path><path d="M827 2700L828.5 2610C830 2520 833 2340 828.5 2160C824 1980 812 1800 815 1620C818 1440 836 1260 831.5 1080C827 900 800 720 798.5 540C797 360 821 180 833 90L845 0L873 0L867 90C861 180 849 360 850.5 540C852 720 867 900 870 1080C873 1260 864 1440 861 1620C858 1800 861 1980 862.5 2160C864 2340 864 2520 864 2610L864 2700Z" fill="#9d9de0"></path><path d="M719 2700L699.5 2610C680 2520 641 2340 632 2160C623 1980 644 1800 653 1620C662 1440 659 1260 638 1080C617 900 578 720 563 540C548 360 557 180 561.5 90L566 0L846 0L834 90C822 180 798 360 799.5 540C801 720 828 900 832.5 1080C837 1260 819 1440 816 1620C813 1800 825 1980 829.5 2160C834 2340 831 2520 829.5 2610L828 2700Z" fill="#9595dd"></path><path d="M404 2700L419 2610C434 2520 464 2340 474.5 2160C485 1980 476 1800 468.5 1620C461 1440 455 1260 440 1080C425 900 401 720 401 540C401 360 425 180 437 90L449 0L567 0L562.5 90C558 180 549 360 564 540C579 720 618 900 639 1080C660 1260 663 1440 654 1620C645 1800 624 1980 633 2160C642 2340 681 2520 700.5 2610L720 2700Z" fill="#8c8cda"></path><path d="M350 2700L362 2610C374 2520 398 2340 408.5 2160C419 1980 416 1800 396.5 1620C377 1440 341 1260 321.5 1080C302 900 299 720 311 540C323 360 350 180 363.5 90L377 0L450 0L438 90C426 180 402 360 402 540C402 720 426 900 441 1080C456 1260 462 1440 469.5 1620C477 1800 486 1980 475.5 2160C465 2340 435 2520 420 2610L405 2700Z" fill="#8383d7"></path><path d="M260 2700L257 2610C254 2520 248 2340 246.5 2160C245 1980 248 1800 237.5 1620C227 1440 203 1260 195.5 1080C188 900 197 720 200 540C203 360 200 180 198.5 90L197 0L378 0L364.5 90C351 180 324 360 312 540C300 720 303 900 322.5 1080C342 1260 378 1440 397.5 1620C417 1800 420 1980 409.5 2160C399 2340 375 2520 363 2610L351 2700Z" fill="#7b7bcf"></path><path d="M188 2700L183.5 2610C179 2520 170 2340 168.5 2160C167 1980 173 1800 167 1620C161 1440 143 1260 135.5 1080C128 900 131 720 134 540C137 360 140 180 141.5 90L143 0L198 0L199.5 90C201 180 204 360 201 540C198 720 189 900 196.5 1080C204 1260 228 1440 238.5 1620C249 1800 246 1980 247.5 2160C249 2340 255 2520 258 2610L261 2700Z" fill="#7372c3"></path><path d="M98 2700L96.5 2610C95 2520 92 2340 90.5 2160C89 1980 89 1800 89 1620C89 1440 89 1260 89 1080C89 900 89 720 92 540C95 360 101 180 104 90L107 0L144 0L142.5 90C141 180 138 360 135 540C132 720 129 900 136.5 1080C144 1260 162 1440 168 1620C174 1800 168 1980 169.5 2160C171 2340 180 2520 184.5 2610L189 2700Z" fill="#6a6ab7"></path><path d="M44 2700L42.5 2610C41 2520 38 2340 39.5 2160C41 1980 47 1800 45.5 1620C44 1440 35 1260 32 1080C29 900 32 720 36.5 540C41 360 47 180 50 90L53 0L108 0L105 90C102 180 96 360 93 540C90 720 90 900 90 1080C90 1260 90 1440 90 1620C90 1800 90 1980 91.5 2160C93 2340 96 2520 97.5 2610L99 2700Z" fill="#6261ac"></path><path d="M0 2700L0 2610C0 2520 0 2340 0 2160C0 1980 0 1800 0 1620C0 1440 0 1260 0 1080C0 900 0 720 0 540C0 360 0 180 0 90L0 0L54 0L51 90C48 180 42 360 37.5 540C33 720 30 900 33 1080C36 1260 45 1440 46.5 1620C48 1800 42 1980 40.5 2160C39 2340 42 2520 43.5 2610L45 2700Z" fill="#5a59a0"></path></svg>