<?xml version="1.0" encoding="UTF-8"?>
<svg width="261px" height="64px" viewBox="0 0 261 64" version="1.1" xmlns="http://www.w3.org/2000/svg" xmlns:xlink="http://www.w3.org/1999/xlink">
    <title>Group</title>
    <defs>
        <path d="M37.9996947,0 L76,23.8821913 L63.8878136,31.487131 L38.0003053,47.7647492 L12.1840452,31.4863162 L7.43443964,28.539952 L7.43443964,55.1315762 C8.65017745,55.8341002 9.49306348,57.0387181 9.73718002,58.4223788 C9.98050265,59.8060395 9.60040392,61.2263235 8.697873,62.3028616 C7.79526066,63.378585 6.46340872,64 5.05912793,64 C3.65492858,64 2.32291378,63.378585 1.42038287,62.3028616 C0.517847877,61.2263643 0.137753219,59.8060395 0.381075847,58.4223788 C0.62515167,57.0387792 1.46797663,55.834141 2.68381622,55.1315762 L2.68381622,55.1315762 L2.68381622,25.5701636 L0,23.8825579 L37.9996947,0 Z M63.9365079,37.4339623 L63.9365079,38.3289723 C63.9365079,47.5009275 58.9929768,55.9754224 50.9676421,60.5608953 C42.943939,65.1463682 33.0568768,65.1463682 25.0323579,60.5608953 C17.0070232,55.9752205 12.0634921,47.5007256 12.0634921,38.3289723 L12.0634921,38.3289723 L12.0634921,37.4339623 L37.9991842,53.5197568 L63.9365079,37.4339623 Z" id="path-1"></path>
    </defs>
    <g id="Design-System" stroke="none" stroke-width="1" fill="none" fill-rule="evenodd">
        <g id="Circular-Logo-Presentation-2" transform="translate(-38.000000, -62.000000)">
            <g id="Group" transform="translate(38.000000, 62.000000)">
                <g id="eddo" transform="translate(91.497159, 5.636364)" fill="#34495E" fill-rule="nonzero">
                    <path d="M18.6903409,53.15625 C14.8210227,53.15625 11.4928977,52.3252841 8.70596591,50.6633523 C5.91903409,49.0014205 3.77130682,46.6576705 2.26278409,43.6321023 C0.754261364,40.6065341 1.13686838e-13,37.0568182 1.13686838e-13,32.9829545 C1.13686838e-13,28.9602273 0.754261364,25.4147727 2.26278409,22.3465909 C3.77130682,19.2784091 5.88494318,16.8835227 8.60369318,15.1619318 C11.3224432,13.4403409 14.5056818,12.5795455 18.1534091,12.5795455 C20.3693182,12.5795455 22.5170455,12.9460227 24.5965909,13.6789773 C26.6761364,14.4119318 28.5426136,15.5625 30.1960227,17.1306818 C31.8494318,18.6988636 33.1534091,20.7315341 34.1079545,23.2286932 C35.0625,25.7258523 35.5397727,28.7556818 35.5397727,32.3181818 L35.5397727,35.0284091 L4.32102273,35.0284091 L4.32102273,29.3011364 L28.0482955,29.3011364 C28.0482955,27.2897727 27.6392045,25.5042614 26.8210227,23.9446023 C26.0028409,22.3849432 24.8565341,21.1534091 23.3821023,20.25 C21.9076705,19.3465909 20.1818182,18.8948864 18.2045455,18.8948864 C16.0568182,18.8948864 14.1860795,19.4190341 12.5923295,20.4673295 C10.9985795,21.515625 9.77130682,22.8792614 8.91051136,24.5582386 C8.04971591,26.2372159 7.61931818,28.0568182 7.61931818,30.0170455 L7.61931818,34.4914773 C7.61931818,37.1164773 8.08380682,39.3494318 9.01278409,41.1903409 C9.94176136,43.03125 11.2414773,44.4332386 12.9119318,45.3963068 C14.5823864,46.359375 16.5340909,46.8409091 18.7670455,46.8409091 C20.2159091,46.8409091 21.5369318,46.6321023 22.7301136,46.2144886 C23.9232955,45.796875 24.9545455,45.1704545 25.8238636,44.3352273 C26.6931818,43.5 27.3579545,42.46875 27.8181818,41.2414773 L35.0539773,42.5454545 C34.4744318,44.6761364 33.4389205,46.5383523 31.9474432,48.1321023 C30.4559659,49.7258523 28.5894886,50.9616477 26.3480114,51.8394886 C24.1065341,52.7173295 21.5539773,53.15625 18.6903409,53.15625 Z" id="Path"></path>
                    <path d="M58.7556818,53.1306818 C55.5852273,53.1306818 52.7599432,52.3167614 50.2798295,50.6889205 C47.7997159,49.0610795 45.8565341,46.734375 44.4502841,43.7088068 C43.0440341,40.6832386 42.3409091,37.0482955 42.3409091,32.8039773 C42.3409091,28.5596591 43.0525568,24.9289773 44.4758523,21.9119318 C45.8991477,18.8948864 47.8551136,16.5852273 50.34375,14.9829545 C52.8323864,13.3806818 55.6534091,12.5795455 58.8068182,12.5795455 C61.2443182,12.5795455 63.2088068,12.984375 64.7002841,13.7940341 C66.1917614,14.6036932 67.3508523,15.5454545 68.1775568,16.6193182 C69.0042614,17.6931818 69.6477273,18.6392045 70.1079545,19.4573864 L70.5681818,19.4573864 L70.5681818,0 L78.2130682,0 L78.2130682,52.3636364 L70.7471591,52.3636364 L70.7471591,46.2528409 L70.1079545,46.2528409 C69.6477273,47.0880682 68.9872159,48.0426136 68.1264205,49.1164773 C67.265625,50.1903409 66.0852273,51.1278409 64.5852273,51.9289773 C63.0852273,52.7301136 61.1420455,53.1306818 58.7556818,53.1306818 Z M60.4431818,46.6107955 C62.6420455,46.6107955 64.5042614,46.0269886 66.0298295,44.859375 C67.5553977,43.6917614 68.7144886,42.0681818 69.5071023,39.9886364 C70.2997159,37.9090909 70.6960227,35.4886364 70.6960227,32.7272727 C70.6960227,30 70.3039773,27.6136364 69.5198864,25.5681818 C68.7357955,23.5227273 67.5852273,21.9289773 66.0681818,20.7869318 C64.5511364,19.6448864 62.6761364,19.0738636 60.4431818,19.0738636 C58.1420455,19.0738636 56.2244318,19.6704545 54.6903409,20.8636364 C53.15625,22.0568182 52.0014205,23.6846591 51.2258523,25.7471591 C50.4502841,27.8096591 50.0625,30.1363636 50.0625,32.7272727 C50.0625,35.3522727 50.4545455,37.7130682 51.2386364,39.8096591 C52.0227273,41.90625 53.1860795,43.5639205 54.7286932,44.7826705 C56.2713068,46.0014205 58.1761364,46.6107955 60.4431818,46.6107955 Z" id="Shape"></path>
                    <path d="M103.806818,53.1306818 C100.636364,53.1306818 97.8110795,52.3167614 95.3309659,50.6889205 C92.8508523,49.0610795 90.9076705,46.734375 89.5014205,43.7088068 C88.0951705,40.6832386 87.3920455,37.0482955 87.3920455,32.8039773 C87.3920455,28.5596591 88.1036932,24.9289773 89.5269886,21.9119318 C90.9502841,18.8948864 92.90625,16.5852273 95.3948864,14.9829545 C97.8835227,13.3806818 100.704545,12.5795455 103.857955,12.5795455 C106.295455,12.5795455 108.259943,12.984375 109.75142,13.7940341 C111.242898,14.6036932 112.401989,15.5454545 113.228693,16.6193182 C114.055398,17.6931818 114.698864,18.6392045 115.159091,19.4573864 L115.619318,19.4573864 L115.619318,0 L123.264205,0 L123.264205,52.3636364 L115.798295,52.3636364 L115.798295,46.2528409 L115.159091,46.2528409 C114.698864,47.0880682 114.038352,48.0426136 113.177557,49.1164773 C112.316761,50.1903409 111.136364,51.1278409 109.636364,51.9289773 C108.136364,52.7301136 106.193182,53.1306818 103.806818,53.1306818 Z M105.494318,46.6107955 C107.693182,46.6107955 109.555398,46.0269886 111.080966,44.859375 C112.606534,43.6917614 113.765625,42.0681818 114.558239,39.9886364 C115.350852,37.9090909 115.747159,35.4886364 115.747159,32.7272727 C115.747159,30 115.355114,27.6136364 114.571023,25.5681818 C113.786932,23.5227273 112.636364,21.9289773 111.119318,20.7869318 C109.602273,19.6448864 107.727273,19.0738636 105.494318,19.0738636 C103.193182,19.0738636 101.275568,19.6704545 99.7414773,20.8636364 C98.2073864,22.0568182 97.0525568,23.6846591 96.2769886,25.7471591 C95.5014205,27.8096591 95.1136364,30.1363636 95.1136364,32.7272727 C95.1136364,35.3522727 95.5056818,37.7130682 96.2897727,39.8096591 C97.0738636,41.90625 98.2372159,43.5639205 99.7798295,44.7826705 C101.322443,46.0014205 103.227273,46.6107955 105.494318,46.6107955 Z" id="Shape"></path>
                    <path d="M150.698864,53.15625 C147.017045,53.15625 143.803977,52.3125 141.059659,50.625 C138.315341,48.9375 136.184659,46.5767045 134.667614,43.5426136 C133.150568,40.5085227 132.392045,36.9630682 132.392045,32.90625 C132.392045,28.8323864 133.150568,25.2698864 134.667614,22.21875 C136.184659,19.1676136 138.315341,16.7982955 141.059659,15.1107955 C143.803977,13.4232955 147.017045,12.5795455 150.698864,12.5795455 C154.380682,12.5795455 157.59375,13.4232955 160.338068,15.1107955 C163.082386,16.7982955 165.213068,19.1676136 166.730114,22.21875 C168.247159,25.2698864 169.005682,28.8323864 169.005682,32.90625 C169.005682,36.9630682 168.247159,40.5085227 166.730114,43.5426136 C165.213068,46.5767045 163.082386,48.9375 160.338068,50.625 C157.59375,52.3125 154.380682,53.15625 150.698864,53.15625 Z M150.724432,46.7386364 C153.110795,46.7386364 155.088068,46.1079545 156.65625,44.8465909 C158.224432,43.5852273 159.387784,41.90625 160.146307,39.8096591 C160.90483,37.7130682 161.284091,35.4034091 161.284091,32.8806818 C161.284091,30.375 160.90483,28.0696023 160.146307,25.9644886 C159.387784,23.859375 158.224432,22.1676136 156.65625,20.8892045 C155.088068,19.6107955 153.110795,18.9715909 150.724432,18.9715909 C148.321023,18.9715909 146.330966,19.6107955 144.754261,20.8892045 C143.177557,22.1676136 142.009943,23.859375 141.25142,25.9644886 C140.492898,28.0696023 140.113636,30.375 140.113636,32.8806818 C140.113636,35.4034091 140.492898,37.7130682 141.25142,39.8096591 C142.009943,41.90625 143.177557,43.5852273 144.754261,44.8465909 C146.330966,46.1079545 148.321023,46.7386364 150.724432,46.7386364 Z" id="Shape"></path>
                </g>
                <g id="Wave-Mask">
                    <mask id="mask-2" fill="white">
                        <use xlink:href="#path-1"></use>
                    </mask>
                    <use id="Mask" fill="#CA7878" fill-rule="nonzero" xlink:href="#path-1"></use>
                    <g mask="url(#mask-2)" fill-rule="nonzero" id="Path">
                        <g transform="translate(-5.000000, -12.000000)">
                            <path d="M0,15.4931507 L7.25,19.4260274 C14.5,23.4780822 29,31.3438356 43.5,30.6287671 C58,29.7945205 72.5,20.260274 79.75,15.4931507 L87,10.7260274 L87,3.57534247 L79.75,3.57534247 C72.5,3.57534247 58,3.57534247 43.5,3.57534247 C29,3.57534247 14.5,3.57534247 7.25,3.57534247 L0,3.57534247 L0,15.4931507 Z" fill="#718BDF"></path>
                            <path d="M0,20.260274 L7.25,24.7890411 C14.5,29.4369863 29,38.4945205 43.5,37.1835616 C58,35.7534247 72.5,23.8356164 79.75,17.8767123 L87,11.9178082 L87,8.34246575 L79.75,13.109589 C72.5,17.8767123 58,27.4109589 43.5,28.2452055 C29,28.960274 14.5,21.0945205 7.25,17.0424658 L0,13.109589 L0,20.260274 Z" fill="#6297E6"></path>
                            <path d="M0,23.8356164 L7.25,29.1986301 C14.5,34.5616438 29,45.2876712 43.5,43.2616438 C58,41.3547945 72.5,26.5767123 79.75,19.3068493 L87,11.9178082 L87,9.53424658 L79.75,15.4931507 C72.5,21.4520548 58,33.369863 43.5,34.8 C29,36.1109589 14.5,27.0534247 7.25,22.4054795 L0,17.8767123 L0,23.8356164 Z" fill="#54A2EB"></path>
                            <path d="M0,27.4109589 L7.25,32.4164384 C14.5,37.3027397 29,47.3136986 43.5,45.2876712 C58,43.2616438 72.5,29.4369863 79.75,22.4054795 L87,15.4931507 L87,9.53424658 L79.75,16.9232877 C72.5,24.1931507 58,38.9712329 43.5,40.8780822 C29,42.9041096 14.5,32.1780822 7.25,26.8150685 L0,21.4520548 L0,27.4109589 Z" fill="#49ADEE"></path>
                            <path d="M0,34.5616438 L7.25,38.9712329 C14.5,43.2616438 29,52.0808219 43.5,49.2205479 C58,46.4794521 72.5,32.1780822 79.75,25.0273973 L87,17.8767123 L87,13.109589 L79.75,20.0219178 C72.5,27.0534247 58,40.8780822 43.5,42.9041096 C29,44.930137 14.5,34.9191781 7.25,30.0328767 L0,25.0273973 L0,34.5616438 Z" fill="#43B7EF"></path>
                            <path d="M0,40.5205479 L7.25,44.3342466 C14.5,48.0287671 29,55.6561644 43.5,52.0808219 C58,48.5054795 72.5,33.7273973 79.75,26.4575342 L87,19.0684932 L87,15.4931507 L79.75,22.6438356 C72.5,29.7945205 58,44.0958904 43.5,46.8369863 C29,49.6972603 14.5,40.8780822 7.25,36.5876712 L0,32.1780822 L0,40.5205479 Z" fill="#45C1EF"></path>
                            <path d="M0,46.4794521 L7.25,49.4589041 C14.5,52.4383562 29,58.3972603 43.5,54.4643836 C58,50.4123288 72.5,36.5876712 79.75,29.5561644 L87,22.6438356 L87,16.6849315 L79.75,24.0739726 C72.5,31.3438356 58,46.1219178 43.5,49.6972603 C29,53.2726027 14.5,45.6452055 7.25,41.9506849 L0,38.1369863 L0,46.4794521 Z" fill="#4ECAED"></path>
                            <path d="M0,73.890411 L7.25,72.6986301 C14.5,71.5068493 29,69.1232877 43.5,65.190411 C58,61.1383562 72.5,55.6561644 79.75,52.7958904 L87,50.0547945 L87,20.260274 L79.75,27.1726027 C72.5,34.2041096 58,48.0287671 43.5,52.0808219 C29,56.0136986 14.5,50.0547945 7.25,47.0753425 L0,44.0958904 L0,73.890411 Z" fill="#5CD3EB"></path>
                            <path d="M0,79.8493151 L7.25,78.3 C14.5,76.6315068 29,73.5328767 43.5,71.8643836 C58,70.3150685 72.5,70.3150685 79.75,70.3150685 L87,70.3150685 L87,47.6712329 L79.75,50.4123288 C72.5,53.2726027 58,58.7547945 43.5,62.8068493 C29,66.739726 14.5,69.1232877 7.25,70.3150685 L0,71.5068493 L0,79.8493151 Z" fill="#6CDBE8"></path>
                            <path d="M0,85.8082192 L7.25,84.8547945 C14.5,83.7821918 29,81.8753425 43.5,81.2794521 C58,80.6835616 72.5,81.3986301 79.75,81.8753425 L87,82.2328767 L87,67.9315068 L79.75,67.9315068 C72.5,67.9315068 58,67.9315068 43.5,69.4808219 C29,71.1493151 14.5,74.2479452 7.25,75.9164384 L0,77.4657534 L0,85.8082192 Z" fill="#7EE3E6"></path>
                        </g>
                    </g>
                </g>
            </g>
        </g>
    </g>
</svg>